<svg aria-hidden="true" style="width:0;height:0;position:absolute;overflow:hidden" xmlns="http://www.w3.org/2000/svg"><defs><symbol id="icon-close" viewBox="0 0 32 32"><path fill="none" stroke="#000" style="stroke:var(--color1,#ff6b01)" stroke-width="2" d="m2.519 2 26.963 28M2 29.481 30 2.518"/></symbol><symbol id="icon-Vector" viewBox="0 0 34 32"><path fill="#ff6b08" style="fill:var(--color1,#ff6b08)" d="m17.231 31.705-2.412-2.412C5.859 21.367.001 16.025.001 9.478.001 4.136 4.136.001 9.478.001c2.929 0 5.858 1.378 7.754 3.618 1.895-2.24 4.825-3.618 7.754-3.618 5.342 0 9.477 4.135 9.477 9.477 0 6.548-5.858 11.889-14.818 19.815l-2.412 2.412z"/></symbol><symbol id="icon-search-2" viewBox="0 0 32 32"><path fill="none" stroke="#fff" style="stroke:var(--color2,#fff)" stroke-linejoin="round" stroke-linecap="round" stroke-width="2.667" d="M14.667 25.333c5.891 0 10.667-4.776 10.667-10.667S20.558 3.999 14.667 3.999 4 8.775 4 14.666s4.776 10.667 10.667 10.667zM28 28.001l-5.8-5.8"/></symbol><symbol id="icon-film" viewBox="0 0 32 32"><path fill="none" stroke="#fff" style="stroke:var(--color2,#fff)" stroke-linejoin="round" stroke-linecap="round" stroke-width="2.667" d="M26.427 2.667H5.574a2.907 2.907 0 0 0-2.907 2.907v20.853a2.907 2.907 0 0 0 2.907 2.907h20.853a2.907 2.907 0 0 0 2.907-2.907V5.574a2.907 2.907 0 0 0-2.907-2.907zM9.333 2.667v26.667M22.667 2.667v26.667M2.667 16h26.667M2.667 9.333h6.667M2.667 22.667h6.667M22.667 22.667h6.667M22.667 9.333h6.667"/></symbol><symbol id="icon-search" viewBox="0 0 32 32"><path d="m31.008 27.231-7.58-6.447c-.784-.705-1.622-1.029-2.299-.998a11.954 11.954 0 0 0 2.87-7.787c0-6.627-5.373-12-12-12s-12 5.373-12 12 5.373 12 12 12c2.972 0 5.691-1.081 7.787-2.87-.031.677.293 1.515.998 2.299l6.447 7.58c1.104 1.226 2.907 1.33 4.007.23s.997-2.903-.23-4.007zM12 20a8 8 0 1 1 0-16 8 8 0 0 1 0 16z"/></symbol><symbol id="icon-arrow-left2" viewBox="0 0 32 32"><path d="m12.586 27.414-10-10a2 2 0 0 1 0-2.828l10-10a2 2 0 1 1 2.828 2.828L8.828 14H28a2 2 0 1 1 0 4H8.828l6.586 6.586c.39.39.586.902.586 1.414s-.195 1.024-.586 1.414a2 2 0 0 1-2.828 0z"/></symbol><symbol id="icon-footer-heart" viewBox="0 0 32 32"><path fill="#ff6b08" d="m16 30.144-2.24-2.218C5.44 20.639 0 15.728 0 9.708 0 4.797 3.84.995 8.8.995c2.72 0 5.44 1.267 7.2 3.327C17.76 2.263 20.48.995 23.2.995c4.96 0 8.8 3.802 8.8 8.713 0 6.02-5.44 10.931-13.76 18.218L16 30.144z"/></symbol><symbol id="icon-github" viewBox="0 0 32 32"><path d="M16 .395c-8.836 0-16 7.163-16 16 0 7.069 4.585 13.067 10.942 15.182.8.148 1.094-.347 1.094-.77 0-.381-.015-1.642-.022-2.979-4.452.968-5.391-1.888-5.391-1.888-.728-1.849-1.776-2.341-1.776-2.341-1.452-.993.11-.973.11-.973 1.606.113 2.452 1.649 2.452 1.649 1.427 2.446 3.743 1.739 4.656 1.33.143-1.034.558-1.74 1.016-2.14-3.554-.404-7.29-1.777-7.29-7.907 0-1.747.625-3.174 1.649-4.295-.166-.403-.714-2.03.155-4.234 0 0 1.344-.43 4.401 1.64a15.353 15.353 0 0 1 4.005-.539c1.359.006 2.729.184 4.008.539 3.054-2.07 4.395-1.64 4.395-1.64.871 2.204.323 3.831.157 4.234 1.026 1.12 1.647 2.548 1.647 4.295 0 6.145-3.743 7.498-7.306 7.895.574.497 1.085 1.47 1.085 2.963 0 2.141-.019 3.864-.019 4.391 0 .426.288.925 1.099.768C27.421 29.457 32 23.462 32 16.395c0-8.837-7.164-16-16-16z"/></symbol><symbol id="icon-linkedin" viewBox="0 0 32 32"><path d="M12 12h5.535v2.837h.079c.77-1.381 2.655-2.837 5.464-2.837C28.92 12 30 15.637 30 20.367V30h-5.769v-8.54c0-2.037-.042-4.657-3.001-4.657-3.005 0-3.463 2.218-3.463 4.509V30H12V12zM2 12h6v18H2V12zm6-5a3 3 0 1 1-6 0 3 3 0 0 1 6 0z"/></symbol><symbol id="icon-logo" viewBox="0 0 246 32"><path d="M172.838 31.865h57.568c8.792 0 15.919-7.127 15.919-15.919v-.027C246.325 7.127 239.198 0 230.406 0h-57.568c-8.792 0-15.919 7.127-15.919 15.919v.028-.001c0 8.792 7.127 15.919 15.919 15.919zM9.099 31.91h7.027V6.234h9.099V0H0v6.216h9.099zm25.315 0h7.027V7.433h.09l8.063 24.459h5.405l8.333-24.459h.09v24.459h7.027V0H59.863l-7.387 20.811h-.09L45.044 0H34.413zM80.306.108h10.541c2.587.004 5.095.332 7.489.947l-.21-.046a16.697 16.697 0 0 1 6.055 2.807l-.046-.032a13.688 13.688 0 0 1 4.046 4.893l.035.08c.955 2.036 1.512 4.421 1.512 6.936 0 .175-.003.348-.008.522l.001-.025a15.187 15.187 0 0 1-1.499 6.92l.04-.091a14.799 14.799 0 0 1-3.919 4.934l-.027.021a17.21 17.21 0 0 1-5.598 3.002l-.123.034c-1.999.657-4.299 1.036-6.688 1.036h-.12.006-11.486zm7.027 25.406h3.737c1.55 0 3.058-.181 4.504-.522l-.132.026a9.53 9.53 0 0 0 3.686-1.614l-.028.019a7.902 7.902 0 0 0 2.394-2.969l.02-.049a10.557 10.557 0 0 0 .9-4.59v.014l.002-.169a8.848 8.848 0 0 0-.926-3.955l.023.052a8.34 8.34 0 0 0-2.35-2.851l-.019-.014a10.365 10.365 0 0 0-3.377-1.667l-.074-.018a15.033 15.033 0 0 0-4.139-.568h-.082.004-4.144zM119.901.108h11.892c1.472.001 2.918.109 4.332.317l-.161-.019c1.4.185 2.668.598 3.82 1.201l-.063-.03A7.209 7.209 0 0 1 142.407 4l.017.027a7.425 7.425 0 0 1 1.035 4.207l.001-.018a6.712 6.712 0 0 1-1.514 4.516l.01-.012a8.244 8.244 0 0 1-3.933 2.526l-.058.014v.054a9.258 9.258 0 0 1 2.917.925l-.052-.024a7.7 7.7 0 0 1 2.202 1.661l.005.005a7.008 7.008 0 0 1 1.399 2.312l.016.049c.314.838.496 1.806.496 2.817v.069-.004a7.649 7.649 0 0 1-1.1 4.251l.019-.034a8.478 8.478 0 0 1-2.755 2.682l-.038.021a11.842 11.842 0 0 1-3.769 1.473l-.078.013c-1.277.286-2.744.45-4.25.45h-13.074zm7.027 12.748h5.128c.555 0 1.096-.066 1.613-.19l-.047.009a4.297 4.297 0 0 0 1.431-.596l-.017.01a3.11 3.11 0 0 0 1.01-1.066l.008-.015c.239-.443.38-.97.38-1.529l-.001-.097v.005a2.96 2.96 0 0 0-.404-1.654l.008.014a3.105 3.105 0 0 0-1.092-1.01l-.016-.008a5.334 5.334 0 0 0-1.563-.509l-.032-.004a8.715 8.715 0 0 0-1.665-.162h-4.776zm0 13.198h6.326c.577 0 1.139-.066 1.679-.19l-.05.01a4.194 4.194 0 0 0 1.519-.64l-.015.009a3.563 3.563 0 0 0 1.099-1.155l.009-.016a3.389 3.389 0 0 0 .425-1.652l-.002-.11v.005l.002-.106a2.83 2.83 0 0 0-.566-1.704l.005.007a3.618 3.618 0 0 0-1.4-1.054l-.024-.009a7.221 7.221 0 0 0-1.761-.491l-.04-.005a13.079 13.079 0 0 0-1.843-.135h-5.319z"/></symbol><symbol id="icon-minilogo" viewBox="0 0 44 32"><path d="M12.248 16v-.007a4.24 4.24 0 0 1 4.239-4.239h-.024a4.24 4.24 0 0 1 4.239 4.239v.008a4.24 4.24 0 0 1-4.239 4.239h.024a4.24 4.24 0 0 1-4.239-4.239zm19.831-7.515h7.892a4.24 4.24 0 0 0 4.239-4.239v-.007A4.24 4.24 0 0 0 39.971 0h-7.892a4.24 4.24 0 0 0-4.239 4.239v.008a4.24 4.24 0 0 0 4.239 4.239zM4.973 31.993h15.328a4.24 4.24 0 0 0 4.239-4.239v-.007a4.24 4.24 0 0 0-4.239-4.239H4.973a4.24 4.24 0 0 0-4.239 4.239v.008a4.24 4.24 0 0 0 4.239 4.239zm20.13-11.754h1.499l3.502-8.485h-2.003l-2.135 5.565h-.024l-2.099-5.565h-2.135zm7.785 0h1.871v-8.485h-1.871zm5.325 0h5.985v-1.72h-4.114v-1.727h3.682v-1.727h-3.682v-1.583h3.898v-1.727h-5.757zM2.423 8.492h1.871V1.655h2.423V0H0v1.655h2.423zm6.932 0h1.871v-3.67h3.622v3.67h1.871V0h-1.871v3.166h-3.634V0H9.355zm9.895 0h5.997V6.765h-4.138V5.038h3.682V3.311h-3.682V1.728h3.898V.001H19.25zM.3 20.246h1.859v-6.513h.024l2.159 6.513h1.415l2.231-6.513h.024v6.513h1.871v-8.492H7.064l-1.967 5.541h-.024l-1.955-5.541H.287zM27.188 32h3.067a5.89 5.89 0 0 0 1.825-.288l-.042.012a4.68 4.68 0 0 0 1.532-.816l-.009.007a3.932 3.932 0 0 0 1.038-1.297l.01-.023c.26-.52.413-1.134.413-1.783v-.037.002l.002-.127c0-.672-.149-1.308-.416-1.879l.011.027a3.647 3.647 0 0 0-1.075-1.32l-.009-.006a4.41 4.41 0 0 0-1.584-.719l-.03-.006a7.849 7.849 0 0 0-1.935-.24h-2.81zm1.873-6.765h1.118c.393 0 .774.054 1.135.156l-.029-.007c.356.098.666.253.938.456l-.007-.005c.263.202.476.457.623.75l.006.012c.152.303.24.661.24 1.039v.047-.002l.001.07c0 .416-.089.81-.248 1.167l.007-.018a2.099 2.099 0 0 1-.635.797l-.005.004a2.583 2.583 0 0 1-.942.435l-.018.003c-.349.084-.75.132-1.162.132H29.05zM37.731 32h3.478a5.572 5.572 0 0 0 1.171-.127l-.037.007c.386-.079.73-.216 1.038-.404l-.014.008c.303-.183.552-.424.738-.711l.005-.009c.182-.299.289-.661.289-1.048l-.001-.078v.004-.017a2.18 2.18 0 0 0-.137-.765l.005.015a1.874 1.874 0 0 0-.378-.63l.001.002a2.026 2.026 0 0 0-.576-.439l-.011-.005a2.314 2.314 0 0 0-.75-.238l-.013-.002v-.024a2.234 2.234 0 0 0 1.06-.674l.002-.003c.25-.304.402-.698.402-1.127l-.002-.076v.004c.002-.029.002-.063.002-.098 0-.375-.103-.727-.283-1.027l.005.009a1.905 1.905 0 0 0-.709-.65l-.01-.005a3.018 3.018 0 0 0-.984-.31l-.016-.002a8.095 8.095 0 0 0-1.11-.077h-3.167zm1.871-6.909h1.271c.157.001.311.016.46.043l-.016-.002c.153.027.29.076.415.143l-.007-.004a.797.797 0 0 1 .293.268l.002.003a.767.767 0 0 1 .113.403l-.001.035v-.002.025a.868.868 0 0 1-.103.412l.002-.005a.81.81 0 0 1-.268.286l-.003.002c-.108.07-.234.124-.369.154l-.008.001c-.128.03-.275.048-.427.048h-1.377zm0 3.395h1.415c.174.001.345.014.511.038l-.02-.002c.179.025.341.071.492.137l-.012-.005a.966.966 0 0 1 .378.279l.001.002c.093.124.149.28.149.449l-.001.032v-.002l.001.033c0 .16-.042.309-.116.439l.002-.004a.963.963 0 0 1-.292.31l-.003.002a1.153 1.153 0 0 1-.393.167l-.008.001c-.132.03-.283.047-.438.048h-1.68z"/></symbol></defs></svg>